<?xml version="1.0" standalone="no"?>
<!DOCTYPE svg PUBLIC "-//W3C//DTD SVG 20010904//EN"
 "http://www.w3.org/TR/2001/REC-SVG-20010904/DTD/svg10.dtd">
<svg version="1.0" xmlns="http://www.w3.org/2000/svg"
 width="392.000000pt" height="392.000000pt" viewBox="0 0 392.000000 392.000000"
 preserveAspectRatio="xMidYMid meet">
<metadata>
Created by potrace 1.14, written by Peter Selinger 2001-2017
</metadata>
<g transform="translate(0.000000,392.000000) scale(0.100000,-0.100000)"
fill="#000000" stroke="none">
<path d="M1874 3896 c-23 -7 -69 -30 -102 -50 -33 -20 -62 -36 -65 -36 -9 0
-162 -94 -169 -104 -4 -6 -8 -7 -8 -2 0 5 -6 4 -12 -2 -7 -5 -29 -19 -48 -30
-19 -11 -80 -46 -135 -77 -55 -32 -120 -69 -145 -83 -25 -13 -53 -31 -62 -40
-10 -8 -18 -12 -18 -8 0 4 -12 -2 -26 -13 -15 -12 -32 -21 -40 -21 -7 0 -14
-4 -16 -8 -3 -8 -94 -61 -170 -100 -16 -7 -28 -18 -28 -23 0 -5 -3 -9 -7 -8
-14 2 -53 -13 -53 -20 0 -4 -22 -18 -50 -31 -27 -13 -50 -27 -50 -32 0 -4 -5
-8 -11 -8 -7 0 -45 -20 -87 -45 -41 -25 -78 -45 -81 -45 -4 0 -18 -10 -31 -22
-14 -13 -26 -22 -27 -20 -6 5 -69 -32 -96 -57 -44 -42 -83 -103 -94 -149 -13
-50 -16 -1781 -3 -1797 4 -5 10 -23 14 -39 4 -16 19 -45 34 -64 32 -42 140
-124 153 -116 5 3 9 1 9 -4 0 -4 17 -17 38 -29 46 -25 85 -48 185 -107 43 -25
80 -46 83 -46 3 0 21 -11 41 -25 20 -13 40 -22 45 -19 4 3 8 1 8 -5 0 -5 11
-16 24 -23 13 -7 52 -29 87 -48 35 -19 65 -34 66 -32 2 1 13 -7 25 -18 12 -11
28 -20 35 -20 7 0 13 -4 13 -10 0 -5 4 -10 9 -10 9 0 152 -79 161 -89 3 -3 23
-15 45 -27 60 -31 119 -65 131 -75 6 -5 14 -6 17 -2 4 3 7 2 7 -3 0 -5 17 -18
38 -29 20 -11 56 -32 79 -47 23 -15 44 -28 48 -28 3 0 24 -12 48 -27 23 -14
48 -26 54 -26 7 0 13 -3 13 -6 0 -4 17 -15 38 -26 20 -11 39 -22 42 -25 32
-33 190 -35 255 -4 22 10 42 22 45 25 3 4 33 21 68 39 34 17 62 37 62 43 0 6
3 8 6 4 6 -6 20 1 156 82 48 28 89 51 92 51 3 0 14 7 23 15 10 8 20 14 23 13
6 -4 72 42 82 57 4 5 8 6 8 2 0 -9 93 43 98 55 2 4 7 8 12 8 8 0 250 137 440
249 125 73 170 99 200 114 14 6 30 15 35 20 6 4 38 24 73 45 76 45 123 83 116
94 -3 4 -1 8 4 8 16 0 52 77 58 126 7 56 8 1666 0 1734 -6 59 -16 87 -46 131
-24 37 -117 111 -145 117 -8 2 -15 8 -15 13 0 5 -6 9 -13 9 -7 0 -29 11 -49
25 -20 13 -42 26 -49 27 -7 2 -22 11 -33 20 -10 10 -23 15 -28 12 -4 -3 -8 -1
-8 3 0 5 -28 24 -62 43 -35 18 -65 36 -68 39 -3 3 -23 16 -45 27 -22 12 -78
43 -123 70 -133 78 -161 92 -166 86 -4 -3 -6 0 -6 6 0 6 -17 19 -37 29 -21 9
-40 20 -43 23 -8 10 -145 84 -149 81 -2 -1 -7 1 -10 6 -9 12 -91 64 -91 57 0
-3 -7 2 -16 10 -8 9 -20 14 -25 11 -5 -4 -9 -2 -9 2 0 5 -35 29 -77 53 -43 24
-81 48 -85 54 -4 6 -8 8 -8 4 0 -4 -29 10 -65 32 -36 22 -65 36 -65 32 0 -4
-6 0 -13 8 -12 15 -57 40 -87 47 -45 12 -140 11 -176 -1z"/>
</g>
</svg>
